<?xml version="1.0" standalone="no"?>
<!DOCTYPE svg PUBLIC "-//W3C//DTD SVG 20010904//EN"
 "http://www.w3.org/TR/2001/REC-SVG-20010904/DTD/svg10.dtd">
<svg version="1.0" xmlns="http://www.w3.org/2000/svg"
 width="500.000000pt" height="500.000000pt" viewBox="0 0 500.000000 500.000000"
 preserveAspectRatio="xMidYMid meet">

<g transform="translate(0.000000,500.000000) scale(0.100000,-0.100000)"
fill="#000000" stroke="none">
<path d="M2365 4784 c-60 -47 -135 -104 -165 -126 -30 -23 -91 -68 -135 -102
-77 -58 -322 -243 -545 -412 -166 -124 -278 -206 -375 -273 -49 -34 -148 -104
-220 -155 -71 -50 -231 -163 -355 -251 -124 -87 -250 -177 -281 -199 -260
-189 -269 -197 -269 -246 0 -21 106 -343 254 -775 207 -601 302 -891 368
-1125 102 -363 295 -953 321 -980 l20 -23 631 9 c721 10 1338 10 1971 -1 493
-9 463 -13 485 63 7 20 22 73 35 117 13 44 52 172 88 285 36 113 108 347 161
520 140 463 221 708 512 1555 144 417 141 384 41 462 -40 32 -98 75 -128 96
-187 130 -357 249 -519 362 -403 280 -787 562 -1175 863 -397 308 -556 422
-587 422 -13 0 -68 -35 -133 -86z m315 -76 c965 -728 1083 -815 1385 -1027 50
-34 234 -164 410 -287 176 -123 357 -250 402 -282 45 -31 82 -60 83 -64 0 -4
-25 -80 -56 -170 -31 -90 -87 -253 -124 -363 -38 -110 -105 -306 -150 -435
-131 -378 -220 -650 -220 -669 0 -9 -4 -21 -9 -26 -4 -6 -16 -39 -25 -75 -10
-36 -24 -83 -31 -105 -8 -22 -28 -87 -45 -145 -18 -58 -42 -139 -55 -180 -13
-41 -37 -122 -55 -180 -17 -58 -35 -116 -40 -130 -10 -29 -56 -182 -97 -319
l-28 -94 -250 2 c-138 1 -484 6 -770 11 -327 6 -715 6 -1045 0 -289 -5 -628
-10 -755 -12 l-230 -2 -38 124 c-22 69 -48 157 -59 195 -10 39 -23 79 -28 90
-5 11 -18 52 -29 90 -11 39 -47 160 -81 270 -34 110 -68 220 -75 245 -7 25
-25 83 -40 130 -15 47 -33 105 -40 130 -37 126 -77 250 -148 455 -175 504
-241 697 -262 760 -13 39 -48 142 -79 230 -31 88 -56 165 -56 172 0 7 48 46
108 88 134 95 661 465 886 622 130 91 615 450 936 693 497 376 519 392 535
386 6 -2 85 -60 175 -128z"/>
<path d="M2248 4507 c-133 -101 -353 -266 -487 -368 -274 -207 -445 -334 -541
-400 -36 -25 -195 -137 -355 -249 -159 -112 -373 -262 -475 -333 -102 -71
-188 -132 -192 -136 -7 -6 30 -122 202 -621 201 -582 263 -767 300 -890 65
-212 226 -739 307 -1000 25 -80 47 -158 50 -173 3 -16 13 -33 23 -39 14 -9 15
-16 7 -39 -6 -16 -8 -32 -4 -36 9 -9 -40 -9 697 2 638 10 1821 10 2041 0 110
-6 127 -4 139 10 17 20 70 153 70 175 0 8 14 55 30 103 17 49 30 94 30 100 0
15 48 170 66 212 7 17 15 44 19 60 6 28 23 83 89 293 14 46 26 92 26 102 0 10
4 21 9 25 5 3 12 20 16 38 9 46 110 355 151 462 19 50 34 98 34 107 0 9 4 19
9 22 4 3 11 23 15 45 3 22 11 52 18 68 6 15 12 30 13 33 0 3 6 14 12 25 6 11
25 67 43 125 17 58 38 119 45 135 8 17 19 53 26 80 6 28 15 55 19 60 4 6 30
78 58 160 28 83 63 181 76 218 27 72 25 97 -5 97 -13 0 -19 7 -19 24 0 13 -6
26 -12 29 -7 2 -98 65 -203 139 -104 74 -237 167 -295 207 -366 252 -727 513
-1057 762 -636 481 -728 549 -740 549 -6 0 -121 -82 -255 -183z m260 64 c6
-37 16 -80 21 -94 6 -15 54 -58 117 -104 59 -43 137 -103 173 -133 71 -59 139
-107 183 -129 14 -7 39 -25 55 -40 16 -14 48 -39 70 -54 22 -15 52 -41 67 -57
14 -16 45 -42 68 -56 23 -15 70 -49 104 -75 34 -27 66 -49 70 -49 5 -1 27 -19
49 -40 22 -22 42 -40 45 -40 9 0 136 -85 170 -114 17 -14 37 -26 43 -26 7 0
31 -17 54 -39 23 -21 44 -36 46 -34 2 2 10 -3 17 -12 7 -8 17 -15 22 -15 5 0
35 -19 66 -42 113 -84 148 -108 185 -128 21 -12 40 -27 44 -35 3 -8 10 -15 17
-15 6 0 27 -14 46 -31 19 -16 51 -39 70 -50 19 -11 69 -44 110 -74 41 -30 94
-66 116 -81 58 -38 65 -64 39 -144 -11 -36 -26 -75 -33 -87 -7 -13 -11 -23 -8
-23 4 0 -24 -90 -41 -130 -16 -40 -106 -299 -113 -330 -5 -19 -22 -69 -38
-110 -31 -77 -57 -153 -72 -205 -10 -35 -77 -231 -89 -260 -8 -19 -36 -111
-67 -220 -7 -27 -18 -59 -23 -70 -5 -11 -17 -49 -26 -85 -9 -36 -22 -78 -28
-93 l-10 -28 -31 28 c-36 34 -99 76 -138 94 -16 7 -28 16 -28 20 0 14 72 67
128 93 83 39 87 42 90 60 5 24 -36 35 -142 38 l-93 3 39 34 c21 18 38 41 36
50 -1 9 17 35 40 57 51 51 55 74 12 67 l-30 -4 40 43 c22 24 40 49 40 56 0 19
-4 27 -12 24 -14 -4 -8 14 10 34 18 20 42 68 42 86 0 6 -9 8 -21 5 -19 -5 -19
-4 -6 11 20 24 47 78 47 97 0 8 -7 15 -15 15 -19 0 -19 0 10 51 41 72 27 100
-30 63 -14 -9 -25 -12 -25 -6 0 5 6 12 14 15 34 13 81 136 58 151 -9 5 -138
-73 -164 -100 -17 -17 -18 -16 -18 7 0 19 6 25 26 27 36 3 110 59 127 96 8 17
18 50 22 74 8 47 -4 55 -38 24 -20 -16 -20 -16 -13 3 26 64 33 145 14 145 -6
0 -21 -8 -32 -17 -17 -15 -19 -15 -8 -1 17 22 12 154 -5 150 -9 -1 -13 13 -13
47 0 27 -5 62 -10 76 -9 23 -13 25 -25 15 -13 -10 -15 -9 -15 11 0 35 -32 120
-44 116 -6 -2 -19 24 -31 57 -20 62 -49 85 -58 49 -3 -13 -5 -10 -6 8 -2 40
-50 129 -67 122 -8 -3 -14 1 -14 9 0 25 -51 89 -68 86 -11 -2 -26 11 -43 37
-30 47 -59 74 -59 55 0 -6 -18 8 -40 32 -29 31 -42 39 -48 30 -6 -9 -15 -3
-32 20 -23 31 -58 63 -71 63 -3 0 -23 17 -43 38 -27 28 -40 36 -50 28 -9 -7
-21 -1 -44 24 -17 19 -39 35 -48 35 -14 0 -16 -7 -11 -43 l6 -43 -45 43 c-24
24 -54 43 -65 43 -23 0 -23 3 -1 -97 9 -43 9 -43 -17 -36 -14 3 -30 9 -36 13
-18 14 -82 22 -89 12 -3 -6 9 -33 28 -60 l33 -50 -43 -12 c-54 -15 -56 -35 -6
-57 20 -10 70 -39 109 -65 40 -26 84 -50 97 -54 14 -3 32 -17 41 -30 8 -13 20
-24 26 -24 23 0 199 -138 199 -156 0 -5 14 -18 30 -29 16 -11 30 -25 30 -32 0
-6 6 -18 13 -25 50 -53 107 -132 129 -178 55 -119 61 -135 59 -148 -1 -7 3
-30 10 -50 6 -20 13 -52 15 -71 1 -20 5 -54 7 -76 3 -22 9 -76 14 -120 11 -96
-2 -287 -22 -332 -8 -17 -15 -38 -15 -47 0 -8 -12 -41 -26 -73 -15 -32 -32
-78 -39 -103 -7 -25 -14 -39 -14 -32 -1 6 -7 12 -14 12 -15 0 -37 -55 -37 -93
0 -32 -15 -36 -23 -7 -8 32 -23 23 -41 -23 -27 -72 -22 -128 18 -180 34 -45
36 -57 9 -57 -8 0 -35 -9 -60 -21 l-46 -21 -63 63 -64 63 -37 -34 c-21 -19
-40 -37 -43 -40 -3 -4 -39 -28 -80 -55 -187 -124 -357 -175 -579 -175 -271 0
-470 76 -696 265 l-47 39 -22 -24 c-13 -14 -37 -38 -54 -55 l-32 -29 -55 54
c-30 30 -55 58 -55 63 0 5 17 29 39 55 78 94 89 143 42 195 -17 17 -40 44 -53
59 -42 48 -61 46 -126 -16 -33 -31 -62 -56 -65 -56 -4 0 -7 8 -7 18 0 10 21
36 48 57 104 84 133 145 93 196 -10 13 -21 34 -25 45 -4 12 -18 33 -32 47 -20
20 -22 26 -9 31 30 11 34 49 13 127 -11 41 -24 76 -29 77 -15 6 -10 28 10 46
16 14 19 31 19 84 -1 37 -5 75 -9 84 -7 12 -4 18 10 23 29 9 40 27 56 89 19
72 19 91 0 110 -14 14 -12 17 18 30 30 12 37 23 56 80 23 72 26 102 11 111
-25 15 -6 21 28 9 70 -25 85 -19 137 56 14 19 32 49 41 66 13 25 21 30 44 26
23 -3 38 7 94 62 75 74 83 103 41 148 l-24 26 39 7 c38 6 70 37 70 69 0 7 8
32 19 55 34 76 10 112 -93 135 -89 21 -102 14 -143 -69 -19 -41 -47 -84 -61
-97 l-26 -23 22 32 c12 17 22 41 22 53 0 22 -59 112 -90 138 -20 16 -78 8
-100 -15 -9 -10 -31 -29 -48 -43 -42 -33 -41 -64 3 -137 37 -62 55 -137 36
-156 -8 -8 -11 -7 -11 5 0 9 -25 46 -56 82 -39 47 -62 66 -79 66 -14 0 -48
-21 -84 -52 -73 -63 -76 -81 -27 -163 19 -31 39 -79 45 -106 16 -75 14 -89 -9
-51 -11 17 -24 32 -29 32 -5 0 -26 15 -46 34 -40 38 -61 46 -92 35 -28 -10
-103 -121 -103 -151 0 -15 18 -42 51 -73 28 -28 59 -67 70 -88 19 -37 28 -101
16 -113 -8 -8 -13 7 -22 58 -5 33 -10 39 -43 48 -20 5 -45 10 -54 10 -9 0 -20
5 -23 10 -13 20 -75 11 -99 -15 -46 -49 -43 -205 2 -205 8 0 43 -14 78 -30 68
-33 108 -77 97 -106 -6 -15 -7 -15 -14 4 -5 14 -23 25 -51 32 -24 6 -57 16
-74 21 -37 11 -78 -1 -92 -28 -5 -10 -12 -50 -16 -89 -8 -82 -1 -92 77 -118
110 -37 157 -77 157 -135 l0 -36 -20 33 c-26 43 -48 50 -123 39 -69 -10 -86
-17 -100 -38 -16 -25 2 -144 24 -174 19 -23 27 -25 97 -25 107 -1 154 -22 171
-80 7 -23 15 -49 18 -59 4 -9 -12 3 -35 27 -31 30 -50 42 -71 42 -17 0 -32 -4
-36 -9 -3 -5 -28 -17 -55 -26 -77 -26 -87 -60 -43 -145 40 -77 58 -86 136 -66
105 26 165 20 192 -20 15 -23 15 -23 -20 -22 -19 1 -43 -6 -52 -14 -10 -9 -36
-23 -58 -32 -21 -9 -43 -22 -47 -29 -14 -22 -8 -69 12 -102 l20 -33 -87 -6
c-111 -8 -138 -16 -138 -41 0 -14 21 -29 80 -58 71 -34 135 -80 135 -97 0 -3
-26 -19 -57 -35 -31 -15 -79 -50 -106 -76 l-49 -47 -19 45 c-10 25 -21 58 -24
75 -3 17 -10 38 -15 47 -4 9 -13 39 -19 66 -5 28 -28 104 -51 169 -22 66 -40
125 -40 132 0 7 -9 33 -20 59 -11 25 -22 56 -24 68 -2 12 -14 49 -26 82 -12
33 -28 83 -36 110 -9 28 -25 69 -36 92 -11 24 -21 49 -22 55 -10 49 -30 109
-37 114 -5 3 -9 17 -9 32 0 15 -7 40 -15 56 -8 15 -15 33 -15 38 0 6 -6 24
-14 41 -19 46 -49 130 -79 222 -37 113 -64 185 -76 198 -5 7 -41 28 -80 47
-39 19 -70 40 -68 47 1 9 231 177 387 283 8 5 60 41 115 80 55 39 108 76 119
83 10 6 47 32 81 57 80 58 184 130 393 277 46 32 89 63 95 68 7 6 113 86 237
179 124 93 235 178 248 189 12 11 22 17 22 12 0 -4 8 1 18 11 9 10 71 59 137
109 66 49 122 92 125 95 3 3 21 17 40 30 19 13 41 30 48 37 8 7 23 18 34 24
11 6 27 17 36 24 48 40 108 85 112 85 3 0 11 -31 18 -69z m-791 -858 c9 -16
25 -36 36 -46 10 -11 17 -26 15 -35 -7 -38 -188 -18 -188 20 0 20 78 88 100
88 11 0 27 -12 37 -27z m1370 -5 c11 -13 26 -33 32 -45 13 -26 15 -103 2 -103
-18 0 -58 64 -64 100 -3 19 -8 43 -12 53 -10 25 17 22 42 -5z m108 -5 c32 -35
48 -93 37 -135 -11 -44 -26 -45 -45 -1 -16 38 -34 163 -23 163 3 0 17 -12 31
-27z m-1200 -7 c84 -22 87 -27 61 -88 -8 -18 -17 -45 -21 -60 -8 -41 -38 -35
-74 14 -46 63 -64 148 -32 148 6 0 35 -7 66 -14z m1305 -62 c18 -28 24 -50 24
-90 0 -72 -16 -88 -43 -43 -14 23 -21 51 -21 86 0 28 -3 58 -6 67 -12 31 21
16 46 -20z m-285 -21 c38 -13 95 -58 95 -75 0 -14 -70 -9 -105 8 -30 14 -85
72 -85 89 0 6 39 -2 95 -22z m372 -52 c12 -18 25 -47 28 -65 7 -37 -9 -86 -28
-86 -21 0 -47 78 -47 139 0 61 12 64 47 12z m-211 -29 c-9 -8 -26 10 -26 26 1
15 2 15 15 -2 8 -11 13 -21 11 -24z m-123 -9 c20 -3 37 -8 37 -10 0 -31 -129
-45 -166 -19 -10 8 -17 16 -14 18 17 13 68 25 85 21 11 -3 37 -7 58 -10z
m-1534 -43 c23 -28 41 -58 39 -68 -7 -38 -198 -20 -198 20 0 18 81 98 101 98
9 0 35 -23 58 -50z m1966 13 c26 -39 35 -90 23 -126 -16 -48 -25 -52 -41 -20
-16 31 -21 64 -19 131 2 49 13 53 37 15z m-227 -1 c2 -7 -2 -10 -12 -6 -9 3
-16 11 -16 16 0 13 23 5 28 -10z m-1337 -44 c29 -25 49 -49 49 -62 0 -21 -95
-116 -117 -116 -24 0 -38 130 -20 193 10 37 30 34 88 -15z m1249 29 c0 -16
-62 -47 -95 -47 -32 0 -75 17 -75 30 0 5 12 10 28 10 15 0 34 5 42 10 23 15
100 13 100 -3z m164 -33 c3 -8 2 -12 -4 -9 -6 3 -10 10 -10 16 0 14 7 11 14
-7z m236 -26 c22 -49 25 -82 9 -127 -26 -75 -62 -3 -52 105 3 35 10 64 15 64
5 0 18 -19 28 -42z m-297 15 c13 -12 -26 -43 -66 -54 -30 -8 -52 -8 -84 1 -45
13 -59 40 -20 40 12 0 29 5 37 10 17 11 123 14 133 3z m160 -63 c3 -11 2 -20
-3 -20 -8 0 -20 24 -20 41 0 17 17 1 23 -21z m-79 0 c14 -5 26 -14 26 -19 0
-18 -58 -41 -104 -41 -44 0 -96 16 -96 30 0 9 88 37 122 39 15 0 38 -3 52 -9z
m-1764 -67 c-30 -32 -56 -60 -57 -62 -2 -2 -5 -2 -7 0 -7 7 94 119 107 119 6
0 -13 -26 -43 -57z m2078 8 c16 -49 10 -99 -18 -133 l-18 -23 -12 30 c-12 29
-8 122 6 159 10 26 26 14 42 -33z m-1950 -26 c57 -29 69 -49 47 -79 -8 -12
-26 -38 -40 -58 -14 -21 -31 -38 -39 -38 -24 0 -61 130 -50 176 8 30 20 30 82
-1z m1730 1 c10 -10 5 -16 -27 -31 -24 -10 -51 -15 -68 -12 -88 18 -113 51
-41 56 23 1 45 4 48 7 8 9 74 -6 88 -20z m-2164 -43 c17 -16 43 -35 56 -45 21
-13 23 -19 14 -35 -24 -40 -194 -56 -194 -18 0 23 70 125 86 125 4 0 21 -12
38 -27z m2456 -28 c14 -51 3 -112 -26 -136 -40 -33 -45 69 -9 179 8 22 22 5
35 -43z m-150 3 c-1 -31 -1 -32 -15 -14 -11 14 -12 23 -4 33 17 19 19 17 19
-19z m-99 10 c49 -14 50 -33 3 -48 -44 -15 -93 -6 -130 23 l-29 22 45 6 c25 3
51 7 59 7 7 1 31 -3 52 -10z m79 -83 c17 -9 30 -20 30 -24 0 -15 -68 -33 -98
-26 -35 7 -92 41 -92 55 0 16 127 12 160 -5z m-2054 -15 c15 -6 25 -12 23 -14
-7 -8 -99 17 -99 27 0 9 29 4 76 -13z m2304 -16 c7 -19 9 -50 6 -69 -8 -38
-41 -85 -62 -85 -19 0 -19 67 0 117 8 21 17 46 20 56 9 27 23 20 36 -19z
m-165 -12 c-8 -9 -25 20 -18 31 3 5 10 2 15 -7 6 -10 7 -20 3 -24z m-2093 -40
c16 -16 15 -21 -4 -79 -12 -36 -27 -63 -34 -63 -31 0 -104 136 -88 162 9 15
107 -2 126 -20z m2066 -8 c39 -16 38 -35 -4 -46 -45 -12 -143 27 -144 58 0 14
104 6 148 -12z m102 -41 l-1 -48 -14 33 c-12 26 -12 36 -2 47 17 20 17 20 17
-32z m153 -29 c7 -41 -10 -98 -38 -132 -29 -33 -35 -28 -35 28 0 52 42 156 59
146 5 -3 11 -22 14 -42z m-232 -5 c35 -9 78 -44 66 -55 -3 -3 -26 -6 -52 -6
-37 0 -55 7 -83 29 -67 54 -50 62 69 32z m-2498 -27 c21 -6 41 -13 45 -17 19
-19 -80 -101 -134 -111 -39 -7 -59 8 -48 36 3 8 8 31 11 50 8 61 10 62 51 57
20 -3 54 -10 75 -15z m2628 -52 l-8 -35 -8 29 c-5 20 -4 31 6 37 18 11 19 9
10 -31z m-88 -23 c33 -12 77 -45 77 -58 0 -5 -21 -9 -47 -10 l-48 -1 38 -17
c38 -18 97 -68 97 -83 0 -13 -58 -9 -94 6 -31 13 -86 77 -86 99 0 5 8 7 19 4
12 -3 6 8 -20 35 -58 60 -46 64 64 25z m247 -6 c0 -51 -15 -89 -48 -123 -32
-35 -52 -36 -52 -3 0 38 71 165 91 165 5 0 9 -18 9 -39z m-2610 16 c0 -4 -18
-44 -43 -97 -12 -25 -16 -28 -12 -10 11 49 37 110 46 110 5 0 9 -2 9 -3z m109
-38 c27 -6 52 -17 55 -24 3 -8 -2 -36 -11 -62 -9 -27 -17 -54 -19 -60 -6 -24
-29 -12 -62 31 -33 45 -56 102 -46 117 7 12 23 11 83 -2z m2390 -46 c0 -5 -4
-17 -9 -28 -8 -18 -9 -17 -9 8 -1 15 4 27 9 27 6 0 10 -3 9 -7z m141 -70 c0
-46 -35 -109 -72 -131 -36 -21 -44 -11 -30 37 12 37 79 131 95 131 4 0 7 -17
7 -37z m-245 -48 c29 -13 67 -41 86 -62 l33 -38 -32 -3 c-44 -4 -81 16 -119
66 -52 68 -47 75 32 37z m138 -5 c-3 -11 -9 -20 -14 -20 -10 0 -12 24 -2 33
13 13 21 7 16 -13z m-2770 -27 c45 -7 55 -23 33 -55 -22 -31 -95 -78 -122 -78
-28 0 -31 9 -24 77 7 58 22 77 55 68 11 -3 37 -9 58 -12z m315 -25 c14 -14 16
-134 2 -143 -13 -8 -81 37 -114 75 -37 45 -31 64 24 71 72 10 75 10 88 -3z
m2592 -35 c-5 -20 -17 -48 -28 -62 -18 -25 -82 -65 -90 -56 -2 2 -1 17 3 34 7
31 102 134 116 126 4 -3 3 -21 -1 -42z m-273 -5 c56 -33 77 -50 96 -78 25 -36
21 -43 -20 -37 -42 7 -87 46 -114 100 -22 43 -16 46 38 15z m149 -45 c-10 -10
-19 5 -10 18 6 11 8 11 12 0 2 -7 1 -15 -2 -18z m-112 -70 c47 -34 79 -75 74
-96 -3 -13 -8 -14 -39 -3 -20 7 -45 21 -56 32 -24 23 -53 77 -53 99 0 18 8 14
74 -32z m261 10 c-15 -63 -79 -123 -129 -123 -20 0 -20 4 -1 40 14 27 109 108
129 109 4 1 5 -11 1 -26z m-125 -37 c0 -3 -4 -8 -10 -11 -5 -3 -10 -1 -10 4 0
6 5 11 10 11 6 0 10 -2 10 -4z m-2500 -51 c7 -9 16 -32 21 -53 4 -20 11 -49
15 -64 6 -25 3 -28 -17 -28 -32 0 -119 42 -143 68 -21 24 -16 50 11 58 10 3
32 12 48 19 40 18 50 18 65 0z m2360 -26 c40 -34 80 -96 80 -125 0 -14 -57 10
-83 34 -21 20 -57 101 -57 129 0 9 16 -1 60 -38z m280 -14 c0 -3 -9 -23 -20
-44 -22 -44 -74 -81 -114 -81 -33 0 -33 12 2 50 39 44 132 97 132 75z m-2930
-25 c13 -8 12 -16 -10 -55 -30 -56 -84 -109 -102 -103 -7 3 -20 33 -27 67 -17
75 -11 83 62 92 28 3 54 7 57 7 3 1 12 -3 20 -8z m2730 0 c0 -5 -2 -10 -4 -10
-3 0 -8 5 -11 10 -3 6 -1 10 4 10 6 0 11 -4 11 -10z m-83 -82 c38 -39 73 -100
73 -128 0 -32 -79 20 -104 69 -17 33 -29 101 -19 101 5 0 28 -19 50 -42z m78
-38 c3 -5 1 -10 -4 -10 -6 0 -11 5 -11 10 0 6 2 10 4 10 3 0 8 -4 11 -10z
m195 -5 c0 -9 -17 -34 -38 -56 -28 -31 -47 -42 -80 -46 -33 -4 -42 -2 -42 9 0
21 39 54 96 82 59 30 64 31 64 11z m-136 -29 c-33 -28 -35 -28 -28 1 4 12 16
23 28 25 31 5 31 2 0 -26z m-2468 -14 c5 -4 24 -32 41 -63 41 -72 34 -84 -43
-75 -66 8 -119 34 -119 59 0 9 22 32 50 51 54 39 55 39 71 28z m2310 -30 c41
-49 64 -95 64 -127 l0 -27 -32 20 c-43 26 -78 87 -78 135 0 20 3 37 8 37 4 0
21 -17 38 -38z m84 -46 c0 -3 -4 -8 -10 -11 -5 -3 -10 -1 -10 4 0 6 5 11 10
11 6 0 10 -2 10 -4z m194 -8 c-39 -69 -93 -108 -149 -108 -56 0 -2 68 81 100
58 23 78 25 68 8z m-134 -12 c0 -2 -11 -13 -25 -26 l-24 -23 11 31 c7 18 17
28 25 25 7 -3 13 -6 13 -7z m-165 -48 c17 -23 35 -53 42 -67 14 -29 17 -81 6
-81 -13 0 -70 54 -82 77 -12 24 -15 113 -3 113 4 0 21 -19 37 -42z m-2555 -30
c0 -41 -50 -142 -72 -146 -19 -4 -70 83 -66 112 3 19 7 22 68 49 56 25 70 22
70 -15z m2506 -30 c4 -13 17 -39 30 -58 24 -35 34 -120 14 -120 -13 0 -63 64
-72 92 -5 16 -6 13 -3 -10 3 -19 14 -45 25 -59 20 -26 27 -87 11 -97 -13 -9
-59 49 -69 87 -11 40 -4 97 14 104 7 2 15 22 19 44 8 44 20 50 31 17z m324 5
c0 -15 -53 -74 -80 -88 -38 -20 -110 -20 -110 -1 0 8 15 26 33 39 47 36 157
71 157 50z m-166 -34 c-9 -11 -19 -17 -21 -15 -8 7 21 45 30 39 4 -3 1 -14 -9
-24z m-2262 -81 c60 -66 64 -76 31 -89 -39 -15 -151 -5 -171 15 -15 15 -12 20
33 66 27 27 53 50 58 50 5 0 27 -19 49 -42z m2376 -28 c-43 -54 -138 -86 -178
-60 -31 21 67 79 135 80 11 0 27 4 35 9 26 17 31 0 8 -29z m-153 10 c-3 -5
-11 -10 -16 -10 -6 0 -7 5 -4 10 3 6 11 10 16 10 6 0 7 -4 4 -10z m-202 -85
c26 -53 38 -145 19 -145 -11 0 -46 39 -61 67 -12 23 -15 115 -4 126 13 13 19
6 46 -48z m-2258 -61 c-1 -54 -38 -144 -60 -144 -19 0 -88 107 -81 125 6 16
116 76 131 71 6 -2 10 -25 10 -52z m2415 47 c0 -5 -7 -11 -14 -14 -10 -4 -13
-1 -9 9 6 15 23 19 23 5z m154 -37 c-42 -34 -97 -49 -141 -38 -48 12 -51 25
-11 49 35 20 170 37 177 21 2 -4 -9 -19 -25 -32z m-389 -29 c32 -59 45 -145
23 -145 -19 0 -52 37 -68 77 -11 30 -8 92 7 116 7 11 8 9 38 -48z m137 3 c-9
-9 -12 -7 -12 12 0 19 3 21 12 12 9 -9 9 -15 0 -24z m53 -18 c3 -5 -1 -10 -9
-10 -9 0 -16 5 -16 10 0 6 4 10 9 10 6 0 13 -4 16 -10z m145 -30 c-1 -20 -52
-55 -97 -64 -38 -9 -116 10 -110 27 8 26 71 46 140 44 37 -1 67 -4 67 -7z
m-260 -46 c0 -8 -4 -14 -10 -14 -5 0 -10 9 -10 21 0 11 5 17 10 14 6 -3 10
-13 10 -21z m40 -24 c0 -5 -4 -10 -10 -10 -5 0 -10 5 -10 10 0 6 5 10 10 10 6
0 10 -4 10 -10z m-2123 -20 c45 -22 63 -40 39 -40 -8 0 -17 4 -20 9 -3 4 -32
14 -65 21 -34 7 -58 17 -55 21 9 15 59 10 101 -11z m-59 -44 c50 -14 110 -35
133 -46 l40 -21 -49 -57 c-28 -31 -59 -66 -71 -76 -27 -25 -27 -46 4 -106 32
-63 32 -96 3 -106 -32 -11 -48 -6 -88 25 -19 15 -48 35 -65 43 -48 25 -168 48
-244 48 -55 0 -71 3 -71 14 0 19 100 90 156 112 24 9 44 23 44 30 0 25 -69 91
-130 123 -34 19 -58 37 -54 43 4 7 56 9 153 5 115 -4 166 -10 239 -31z m371
-4 c117 -98 275 -178 429 -219 85 -23 117 -26 262 -27 141 0 177 3 250 23 168
45 307 114 431 214 l61 50 124 -124 c68 -68 124 -128 124 -134 0 -5 -28 -33
-63 -62 -233 -193 -503 -304 -807 -333 -183 -17 -349 1 -540 59 -106 32 -165
57 -258 107 -91 49 -249 162 -292 208 l-24 27 124 124 c69 69 127 125 129 125
3 0 25 -17 50 -38z m2156 28 c3 -5 -17 -21 -45 -35 -57 -29 -140 -104 -140
-127 0 -9 18 -22 44 -32 54 -21 156 -93 156 -110 0 -10 -20 -14 -72 -15 -124
-3 -242 -37 -301 -87 -44 -37 -73 -46 -97 -31 -26 16 -25 44 5 109 14 29 25
58 25 65 0 7 -32 48 -71 92 l-70 80 41 21 c36 18 186 62 250 73 52 9 269 7
275 -3z m-2737 -370 c94 -22 109 -29 171 -77 63 -47 97 -45 161 12 28 25 55
45 60 45 4 0 21 -11 37 -23 29 -24 159 -104 203 -124 305 -142 648 -180 975
-107 39 9 79 19 90 24 11 4 43 16 70 25 132 46 307 139 371 196 20 18 21 18
65 -22 80 -72 115 -76 190 -19 30 22 72 45 94 51 22 5 51 14 64 20 34 14 217
24 224 12 3 -5 -3 -34 -13 -64 -11 -30 -31 -94 -45 -144 -15 -49 -49 -160 -75
-245 -27 -85 -54 -175 -60 -199 l-11 -43 -537 7 c-295 3 -575 9 -622 12 -147
8 -213 9 -265 2 -70 -10 -1157 -21 -1171 -11 -14 8 -44 83 -69 167 -42 145
-105 343 -123 387 -8 20 -15 53 -16 72 -1 21 -7 38 -16 42 -11 5 -6 9 15 14
57 14 150 10 233 -10z"/>
<path d="M2440 4020 c-24 -72 -47 -135 -51 -142 -7 -11 -83 -17 -226 -18 -115
0 -111 -13 33 -124 94 -73 115 -93 111 -110 -5 -21 -25 -89 -53 -181 -27 -88
-28 -105 -9 -105 9 0 60 30 113 68 159 111 136 105 212 54 114 -78 155 -107
160 -113 3 -3 13 -8 23 -12 14 -5 17 -1 17 28 0 19 -6 52 -14 72 -23 64 -46
144 -46 164 0 10 -4 21 -10 24 -18 11 -11 21 38 55 26 19 53 40 60 47 7 7 40
31 73 54 90 64 81 73 -76 80 -72 4 -140 7 -152 8 -22 1 -24 5 -98 209 -39 106
-51 100 -105 -58z m75 78 c12 -39 69 -198 81 -225 l14 -33 140 0 c77 0 140 -3
140 -8 0 -4 -49 -45 -110 -91 -60 -45 -110 -87 -110 -93 0 -6 17 -66 37 -134
20 -68 34 -127 30 -130 -3 -3 -56 28 -117 71 -62 42 -117 74 -123 72 -7 -2
-58 -37 -115 -76 -108 -74 -127 -83 -118 -53 57 182 76 255 69 261 -4 4 -54
43 -110 85 -57 43 -103 82 -103 87 0 5 63 10 141 11 l141 3 39 105 c21 58 41
117 44 133 7 28 23 36 30 15z"/>
<path d="M2061 2858 c-11 -24 -35 -90 -55 -148 -19 -58 -54 -157 -76 -220 -23
-63 -43 -135 -45 -160 -3 -42 -6 -46 -37 -53 -25 -6 -41 -19 -61 -53 -15 -25
-27 -49 -27 -53 0 -7 125 -88 155 -100 5 -2 70 -39 143 -82 74 -43 139 -80
144 -81 6 -2 -22 -66 -61 -142 l-73 -138 29 -46 c31 -51 52 -61 76 -37 9 8 18
15 21 15 3 0 38 19 78 43 124 74 220 127 229 127 5 0 38 -18 74 -40 36 -22 89
-53 118 -68 107 -59 121 -67 135 -79 25 -23 47 -13 76 35 l28 47 -42 80 c-23
44 -55 103 -71 132 -16 29 -29 56 -29 60 0 5 38 29 85 53 47 25 85 48 85 53 0
4 4 7 10 7 5 0 42 19 82 43 40 24 99 59 131 77 31 19 57 40 57 48 0 25 -54 91
-82 101 -16 6 -29 7 -29 3 -1 -4 -5 18 -9 48 -4 31 -14 71 -23 90 -9 19 -20
51 -26 70 -5 19 -24 73 -41 120 -17 47 -40 112 -51 145 -11 33 -24 69 -29 80
-5 11 -12 30 -15 43 -8 27 -29 28 -134 8 -101 -19 -216 -77 -283 -142 -15 -15
-18 -14 -34 5 -10 12 -24 21 -31 21 -7 0 -13 4 -13 9 0 18 -185 99 -251 110
-103 17 -106 16 -128 -31z m105 11 c111 -20 234 -76 301 -137 l32 -30 1 -291
c0 -160 -2 -291 -5 -291 -2 0 -37 21 -77 47 -71 45 -307 163 -327 163 -6 0
-30 6 -53 14 -24 8 -60 17 -80 20 -21 4 -38 12 -38 19 0 31 172 497 184 497 1
0 29 -5 62 -11z m742 -1 c11 -14 172 -467 172 -484 0 -6 -33 -19 -72 -29 -129
-31 -316 -115 -434 -195 -25 -16 -49 -30 -55 -30 -5 0 -9 114 -9 291 l0 291
27 22 c88 71 191 118 293 135 30 5 58 9 61 10 4 0 11 -5 17 -11z m-897 -529
c45 -11 97 -28 117 -36 92 -38 280 -136 292 -153 3 -3 20 -15 38 -25 30 -18
32 -22 32 -77 0 -32 -2 -58 -5 -58 -3 0 -36 20 -75 45 -143 92 -307 163 -432
189 l-63 13 -3 48 c-3 46 2 75 13 75 3 0 42 -9 86 -21z m1077 -41 l-3 -61 -61
-13 c-124 -25 -256 -82 -423 -183 -46 -28 -86 -51 -88 -51 -1 0 -3 24 -3 53 0
63 -1 62 125 138 139 85 224 122 370 163 87 24 86 25 83 -46z m-1203 -82 c22
-12 96 -56 165 -96 138 -80 158 -92 275 -158 44 -25 101 -58 126 -73 l46 -29
124 72 c68 39 183 105 254 146 72 42 164 95 205 119 41 23 80 43 86 43 15 0
47 -49 41 -63 -2 -7 -33 -28 -68 -48 -35 -19 -125 -71 -199 -114 -74 -43 -180
-104 -235 -136 -55 -31 -101 -62 -103 -67 -1 -5 57 -44 130 -85 183 -104 174
-96 154 -135 -9 -18 -22 -32 -29 -32 -7 0 -55 25 -106 55 -51 30 -95 55 -97
55 -2 0 -37 21 -78 46 l-76 45 -107 -62 c-60 -34 -119 -69 -133 -76 -14 -8
-43 -25 -65 -38 -52 -31 -57 -31 -78 7 -23 39 -32 31 151 135 72 41 132 79
132 83 0 7 -266 165 -505 300 -113 63 -110 61 -91 98 20 38 29 39 81 8z"/>
<path d="M2143 2743 c-14 -41 -87 -221 -104 -260 -28 -61 -25 -73 14 -72 21 1
25 3 12 6 -31 8 -42 22 -25 33 8 5 15 17 15 27 0 15 7 18 45 15 105 -6 290
-98 290 -144 0 -10 -2 -18 -4 -18 -2 0 -37 20 -77 44 -74 44 -207 92 -231 83
-7 -2 1 -8 17 -11 77 -17 113 -29 156 -51 57 -29 121 -72 131 -88 10 -16 15
-8 23 41 6 35 4 42 -10 42 -9 0 -29 8 -43 19 -46 32 -124 67 -192 85 -36 10
-71 20 -77 22 -27 7 -11 24 25 25 37 1 37 1 10 12 -29 11 -35 22 -18 32 6 3
10 15 10 26 0 11 7 19 18 20 10 0 12 3 5 6 -28 11 -10 23 35 25 43 1 44 2 10
5 -25 3 -38 9 -38 19 0 8 5 14 10 14 6 0 10 8 10 18 0 10 5 23 12 30 9 9 8 12
-5 12 -10 0 -20 -8 -24 -17z"/>
<path d="M2228 2753 c6 -2 18 -2 25 0 6 3 1 5 -13 5 -14 0 -19 -2 -12 -5z"/>
<path d="M2280 2740 c0 -5 5 -10 10 -10 6 0 10 5 10 10 0 6 -4 10 -10 10 -5 0
-10 -4 -10 -10z"/>
<path d="M2228 2723 c6 -2 18 -2 25 0 6 3 1 5 -13 5 -14 0 -19 -2 -12 -5z"/>
<path d="M2368 2699 c38 -25 52 -40 52 -56 0 -13 5 -23 11 -23 6 0 9 10 7 21
-3 25 -61 74 -98 84 -14 4 -2 -8 28 -26z"/>
<path d="M2188 2693 c12 -2 30 -2 40 0 9 3 -1 5 -23 4 -22 0 -30 -2 -17 -4z"/>
<path d="M2350 2678 c19 -13 37 -26 38 -30 5 -10 22 -10 22 0 0 8 -74 52 -87
52 -4 0 8 -10 27 -22z"/>
<path d="M2275 2675 c17 -8 36 -14 43 -15 6 0 12 -4 12 -10 0 -5 6 -10 13 -10
17 -1 83 -57 76 -65 -4 -3 -31 9 -61 28 -49 32 -127 62 -136 53 -2 -2 14 -10
35 -16 50 -16 149 -76 157 -95 7 -19 -12 -19 -33 -1 -32 27 -110 65 -148 71
-33 5 -31 3 17 -15 57 -21 160 -84 160 -98 0 -21 -15 -19 -44 3 -50 38 -145
76 -200 80 l-51 4 49 -9 c86 -16 264 -115 243 -136 -4 -5 -17 -2 -29 5 -71 44
-148 80 -183 85 -40 5 -40 5 8 -10 61 -20 167 -81 186 -108 15 -19 15 -19 22
8 4 15 11 64 15 107 5 62 4 79 -6 79 -8 0 -21 6 -29 14 -22 20 -116 66 -132
65 -8 0 0 -7 16 -14z"/>
<path d="M2090 2405 c0 -2 19 -9 41 -15 62 -17 148 -58 200 -96 53 -38 59 -40
59 -18 0 8 -4 13 -9 10 -5 -3 -35 12 -67 33 -69 45 -224 105 -224 86z"/>
<path d="M2785 2773 c46 -10 49 -17 10 -23 l-40 -7 48 -2 c47 -1 68 -20 25
-22 -18 -1 -16 -3 7 -8 17 -3 30 -11 30 -16 0 -6 4 -16 8 -22 13 -20 -1 -33
-36 -34 -18 0 -41 -4 -52 -9 -14 -6 -6 -7 25 -4 25 3 50 7 57 9 6 2 17 -3 23
-11 10 -11 9 -14 -6 -14 -11 0 -26 -5 -34 -11 -11 -8 -7 -9 18 -6 33 4 43 -8
66 -75 3 -10 10 -18 16 -18 6 0 4 15 -6 38 -9 20 -18 44 -21 52 -3 8 -9 24
-13 35 -5 11 -19 45 -31 75 -30 74 -36 80 -78 79 -20 -1 -27 -3 -16 -6z"/>
<path d="M2718 2753 c7 -3 16 -2 19 1 4 3 -2 6 -13 5 -11 0 -14 -3 -6 -6z"/>
<path d="M2675 2740 c-3 -6 1 -7 9 -4 18 7 21 14 7 14 -6 0 -13 -4 -16 -10z"/>
<path d="M2600 2699 c-38 -27 -42 -34 -36 -61 3 -17 6 -43 6 -59 l0 -28 38 25
c51 36 131 76 167 85 27 6 28 7 5 8 -29 1 -114 -37 -159 -70 -40 -30 -55 -14
-16 17 28 22 109 66 145 78 11 3 11 5 -3 5 -19 1 -86 -30 -129 -60 -34 -24
-37 -24 -34 4 3 32 13 46 50 68 17 10 26 19 20 19 -6 0 -30 -14 -54 -31z"/>
<path d="M2685 2720 c-13 -5 -14 -9 -5 -9 8 0 24 4 35 9 13 5 14 9 5 9 -8 0
-24 -4 -35 -9z"/>
<path d="M2628 2687 c-7 -8 -20 -16 -28 -20 -11 -4 -11 -6 -2 -6 8 -1 25 8 39
19 14 11 21 20 15 20 -6 0 -17 -6 -24 -13z"/>
<path d="M2695 2599 c-22 -12 -52 -30 -67 -40 -14 -11 -31 -19 -37 -19 -6 0
-11 -18 -11 -41 l0 -41 38 30 c47 37 116 74 167 88 31 9 34 12 15 13 -30 1
-96 -28 -156 -68 -28 -20 -46 -26 -50 -19 -9 13 28 42 109 86 34 17 55 32 46
32 -8 0 -32 -10 -54 -21z"/>
<path d="M2820 2550 c-12 -8 -11 -10 5 -9 11 1 34 5 50 9 l30 8 -35 1 c-19 0
-42 -4 -50 -9z"/>
<path d="M2703 2504 c-37 -20 -78 -42 -90 -48 -13 -6 -23 -17 -23 -23 0 -19 5
-17 53 20 40 30 79 52 137 75 16 7 19 11 8 11 -9 1 -47 -15 -85 -35z"/>
<path d="M2770 2482 c-36 -16 -83 -40 -105 -53 -22 -14 -48 -28 -57 -32 -13
-5 -16 -14 -11 -44 3 -21 7 -40 9 -42 2 -2 22 13 45 33 24 20 47 36 53 36 5 0
17 6 25 14 9 7 41 21 71 31 30 10 65 21 78 26 13 5 39 9 58 9 57 0 36 -23 -38
-41 -72 -18 -181 -65 -231 -101 -18 -13 -38 -22 -44 -20 -7 2 -13 -4 -13 -13
0 -21 3 -20 68 24 80 54 178 94 260 107 43 7 44 8 38 37 -8 39 -10 40 -33 29
-10 -5 -54 -19 -98 -32 -76 -20 -205 -85 -205 -102 0 -4 -7 -8 -15 -8 -30 0
-14 38 28 66 62 42 85 53 162 79 41 14 60 24 45 24 -14 0 -54 -12 -90 -27z"/>
<path d="M1717 1320 c-48 -62 -56 -80 -34 -79 12 0 93 96 103 124 14 37 -26
10 -69 -45z"/>
<path d="M3187 1354 c-8 -8 93 -134 108 -134 14 0 60 48 53 55 -3 3 -17 0 -32
-6 -14 -7 -27 -10 -29 -8 -34 45 -81 99 -87 99 -3 0 -9 -3 -13 -6z"/>
<path d="M1798 1333 c-42 -50 -80 -115 -70 -125 6 -6 18 2 33 24 l24 33 5 -55
c6 -68 24 -72 28 -7 3 45 6 50 39 63 19 8 37 13 40 10 3 -3 -11 -34 -30 -70
-24 -44 -33 -68 -25 -72 10 -7 33 15 41 39 2 6 15 7 31 3 22 -5 27 -11 22 -26
-3 -11 -9 -30 -13 -41 -4 -16 -2 -20 8 -17 15 4 78 114 79 136 0 21 -20 13
-32 -13 -13 -28 -39 -33 -58 -10 -10 12 -10 21 -1 42 11 24 10 29 -10 44 -22
16 -25 16 -62 -3 -46 -23 -56 -18 -33 16 27 43 15 65 -16 29z"/>
<path d="M3115 1263 c13 -91 27 -143 36 -137 5 3 9 15 9 27 0 29 56 65 73 48
13 -13 37 -15 37 -2 0 12 -134 111 -150 111 -9 0 -10 -13 -5 -47z m60 -20 c16
-15 16 -17 0 -26 -18 -10 -35 5 -35 31 0 17 15 15 35 -5z"/>
<path d="M3031 1261 c-11 -7 -12 -24 -7 -78 l7 -68 -43 40 c-23 22 -45 44 -49
48 -6 8 -39 -1 -39 -12 -1 -19 67 -150 78 -151 17 0 15 15 -9 61 -11 23 -19
43 -17 45 3 2 20 -12 38 -31 19 -19 42 -35 52 -35 16 0 17 7 13 63 l-5 62 22
-47 c21 -43 48 -64 48 -37 0 13 -63 149 -70 149 -3 0 -11 -4 -19 -9z"/>
<path d="M2006 1150 c-15 -38 -28 -73 -28 -77 0 -4 24 -17 54 -29 46 -18 55
-19 70 -7 24 21 76 8 80 -19 2 -12 9 -23 16 -26 8 -3 12 11 11 50 0 73 -12
133 -25 133 -6 0 -31 -25 -54 -55 -24 -30 -46 -58 -50 -63 -3 -4 -20 0 -38 8
l-31 16 21 52 c30 76 32 87 17 87 -8 0 -27 -31 -43 -70z m174 -55 c0 -15 -6
-25 -14 -25 -22 0 -30 19 -16 35 18 22 30 18 30 -10z"/>
<path d="M2816 1158 c-3 -13 -7 -56 -10 -95 -5 -74 6 -96 24 -49 11 31 64 51
81 30 11 -14 39 -20 39 -8 0 7 -92 127 -105 136 -17 13 -24 9 -29 -14z m51
-54 c7 -18 -11 -39 -25 -30 -12 7 -4 46 9 46 6 0 12 -7 16 -16z"/>
<path d="M2262 1130 c-18 -29 -15 -38 19 -70 20 -18 30 -34 26 -44 -9 -22 -34
-20 -47 4 -14 25 -30 17 -23 -10 13 -50 85 -45 98 7 6 24 2 32 -26 55 -20 17
-30 32 -26 42 8 20 21 20 37 1 17 -20 32 -8 20 16 -14 26 -61 25 -78 -1z"/>
<path d="M2669 1140 c-15 -8 -15 -17 -3 -86 15 -84 17 -89 34 -79 7 4 9 19 5
36 -8 37 0 37 36 -2 16 -17 33 -27 40 -24 7 5 2 17 -16 35 -23 24 -24 28 -10
40 19 16 19 54 -1 74 -17 18 -60 21 -85 6z m55 -16 c21 -8 20 -38 0 -55 -14
-11 -18 -10 -30 6 -17 23 -18 42 -1 48 6 3 13 6 14 6 1 1 8 -2 17 -5z"/>
<path d="M2562 1130 c-13 -6 -21 -14 -18 -18 3 -4 6 -36 7 -70 3 -80 7 -86 58
-77 46 8 46 25 0 25 -26 0 -30 3 -27 23 2 16 11 23 31 25 16 2 26 8 24 15 -2
7 -16 11 -31 9 -18 -2 -26 2 -26 13 0 8 0 17 0 20 0 3 12 8 27 13 15 4 26 12
25 17 -2 14 -42 16 -70 5z"/>
<path d="M2430 1045 l0 -85 33 0 c49 0 72 20 63 56 -4 16 -7 42 -6 58 1 39
-16 56 -56 56 l-34 0 0 -85z m55 40 c0 -10 -6 -20 -12 -22 -8 -3 -13 5 -13 22
0 17 5 25 13 23 6 -3 12 -13 12 -23z m15 -75 c0 -23 -29 -35 -36 -15 -4 8 -4
22 0 30 7 20 36 8 36 -15z"/>
</g>
</svg>
